<?xml version="1.0" standalone="no"?><!DOCTYPE svg PUBLIC "-//W3C//DTD SVG 1.1//EN" "http://www.w3.org/Graphics/SVG/1.1/DTD/svg11.dtd"><svg t="1707719990271" class="icon" viewBox="0 0 1024 1024" version="1.1" xmlns="http://www.w3.org/2000/svg" p-id="1045" xmlns:xlink="http://www.w3.org/1999/xlink" width="200" height="200"><path d="M571.733333 512l247.466667-247.466667c17.066667-17.066667 17.066667-42.666667 0-59.733333s-42.666667-17.066667-59.733333 0L512 452.266667 264.533333 204.8c-17.066667-17.066667-42.666667-17.066667-59.733333 0s-17.066667 42.666667 0 59.733333l247.466667 247.466667-247.466667 247.466667c-17.066667 17.066667-17.066667 42.666667 0 59.733333 8.533333 8.533333 21.333333 12.8 29.866667 12.8s21.333333-4.266667 29.866666-12.8l247.466667-247.466667 247.466667 247.466667c8.533333 8.533333 21.333333 12.8 29.866666 12.8s21.333333-4.266667 29.866667-12.8c17.066667-17.066667 17.066667-42.666667 0-59.733333L571.733333 512z" fill="#BBC3C9" p-id="1046"></path></svg>