<?xml version="1.0" standalone="no"?><!DOCTYPE svg PUBLIC "-//W3C//DTD SVG 1.1//EN" "http://www.w3.org/Graphics/SVG/1.1/DTD/svg11.dtd"><svg t="1707723071210" class="icon" viewBox="0 0 1024 1024" version="1.1" xmlns="http://www.w3.org/2000/svg" p-id="11236" xmlns:xlink="http://www.w3.org/1999/xlink" width="200" height="200"><path d="M737.373 740.060c0.143 0 0.311 0 0.481 0 79.247 0 152.484-25.733 211.81-69.299-62.252 174.042-227.511 298.298-421.842 298.298-246.432 0-446.229-199.797-446.229-446.229s199.797-446.229 446.229-446.229c5.434 0 10.863 0.137 16.263 0.333-100.084 63.876-166.439 175.899-166.439 303.405 0 198.656 161.071 359.722 359.727 359.722z" fill="#8a8a8a" p-id="11237"></path><path d="M527.817 990.905c-258.097 0-468.075-209.978-468.075-468.075s209.978-468.075 468.075-468.075c5.707 0 11.409 0.137 17.077 0.35 11.712 0.444 21.039 10.045 21.039 21.825 0 7.706-3.991 14.48-10.019 18.367-97.975 62.535-156.422 169.070-156.422 285.041 0 186.308 151.573 337.882 337.882 337.882 71.817 0 140.444-22.276 198.454-64.433 3.553-2.606 8.013-4.17 12.836-4.17 12.065 0 21.845 9.78 21.845 21.845 0 2.608-0.458 5.11-1.296 7.429-65.931 186.565-243.337 312.012-441.397 312.012zM476.802 101.499c-210.032 25.286-373.364 204.598-373.364 421.331 0 234.007 190.377 424.384 424.384 424.384 157.041 0 299.756-86.982 373.113-222.031-50.752 24.166-106.261 36.727-163.562 36.727-210.398 0-381.572-171.174-381.572-381.572 0-107.255 44.258-207.361 121.002-278.839z" fill="#8a8a8a" p-id="11238"></path><path d="M795.673 572.741h-176.019c-12.062-0.007-21.838-9.788-21.838-21.851 0-7.585 3.865-14.268 9.732-18.186l115.297-76.006h-103.198c-12.065 0-21.845-9.78-21.845-21.845s9.78-21.845 21.845-21.845h176.019c12.062 0.007 21.838 9.788 21.838 21.851 0 7.585-3.865 14.268-9.732 18.186l-115.297 76.006h103.198c12.065 0 21.845 9.78 21.845 21.845s-9.78 21.845-21.845 21.845zM895.321 338.041h-108.031c-12.062-0.007-21.838-9.788-21.838-21.851 0-7.585 3.865-14.268 9.732-18.186l47.303-31.18h-35.198c-12.065 0-21.845-9.78-21.845-21.845s9.78-21.845 21.845-21.845h108.031c12.062 0.007 21.838 9.788 21.838 21.851 0 7.585-3.865 14.268-9.732 18.186l-47.303 31.18h35.198c12.065 0 21.845 9.78 21.845 21.845s-9.78 21.845-21.845 21.845zM937.23 131.34h-91.264c-12.062-0.007-21.838-9.788-21.838-21.851 0-7.585 3.865-14.268 9.732-18.186l30.521-20.115h-18.421c-12.065 0-21.845-9.78-21.845-21.845 0-12.065 9.78-21.845 21.845-21.845h91.264c12.062 0.007 21.838 9.788 21.838 21.851 0 7.585-3.865 14.268-9.732 18.186l-30.521 20.115h18.421c12.065 0 21.845 9.78 21.845 21.845s-9.78 21.845-21.845 21.845z" fill="#8a8a8a" p-id="11239"></path></svg>