<?xml version="1.0" standalone="no"?><!DOCTYPE svg PUBLIC "-//W3C//DTD SVG 1.1//EN" "http://www.w3.org/Graphics/SVG/1.1/DTD/svg11.dtd"><svg t="1707720006626" class="icon" viewBox="0 0 1024 1024" version="1.1" xmlns="http://www.w3.org/2000/svg" p-id="1501" xmlns:xlink="http://www.w3.org/1999/xlink" width="200" height="200"><path d="M768 170.666667h-341.333333c-46.933333 0-85.333333 38.4-85.333334 85.333333v85.333333H256c-46.933333 0-85.333333 38.4-85.333333 85.333334v341.333333c0 46.933333 38.4 85.333333 85.333333 85.333333h341.333333c46.933333 0 85.333333-38.4 85.333334-85.333333v-85.333333h85.333333c46.933333 0 85.333333-38.4 85.333333-85.333334V256c0-46.933333-38.4-85.333333-85.333333-85.333333zM256 768v-341.333333h341.333333v341.333333H256z m512-170.666667h-85.333333v-170.666666c0-46.933333-38.4-85.333333-85.333334-85.333334h-170.666666V256h341.333333v341.333333z" fill="#BBC3C9" p-id="1502"></path></svg>