<?xml version="1.0" standalone="no"?><!DOCTYPE svg PUBLIC "-//W3C//DTD SVG 1.1//EN" "http://www.w3.org/Graphics/SVG/1.1/DTD/svg11.dtd"><svg t="1707723052558" class="icon" viewBox="0 0 1024 1024" version="1.1" xmlns="http://www.w3.org/2000/svg" p-id="9266" xmlns:xlink="http://www.w3.org/1999/xlink" width="200" height="200"><path d="M510.860037 812.698526c-167.183673 0-301.858956-136.998187-301.858956-301.858955S343.676363 208.979592 510.860037 208.979592s301.858956 132.3534 301.858956 301.858955S678.04371 812.698526 510.860037 812.698526z m0 0c-167.183673 0-301.858956-136.998187-301.858956-301.858955S343.676363 208.979592 510.860037 208.979592s301.858956 132.3534 301.858956 301.858955S678.04371 812.698526 510.860037 812.698526zM127.731126 513.161453c0-2.322905 0-2.322905 0 0 0-16.254196 2.321882-32.508391 2.321882-48.761564H37.173644C18.597567 464.398866 0.021489 482.974943 0.021489 501.55102v16.254196c0 20.897959 18.576077 39.474037 37.152155 39.474037h92.879364c-2.321882-13.932314-2.321882-30.18651-2.321882-44.1178z m83.591837-239.166102a400.23245 400.23245 0 0 1 62.693878-62.693877l-32.508392-32.508392c-11.610432-16.254196-37.152155-16.254196-53.40635 0l-9.287527 9.287527c-16.254196 13.932314-16.254196 39.474037 0 53.406351l32.508391 32.508391z m601.397053 0l30.185486-34.830273c16.254196-11.610432 16.254196-37.152155 0-53.40635l-11.610432-11.610433c-11.610432-16.254196-37.152155-16.254196-53.406351 0l-32.508391 32.508392c23.221888 20.898982 46.441729 41.796942 67.339688 67.338664zM510.860037 127.709637c16.254196 0 30.185486 2.321882 46.439682 2.321882V37.152155C557.300742 18.576077 538.724665 0 520.148587 0h-16.254195c-20.897959 0-39.474037 18.576077-39.474037 37.152155v95.202269c16.254196-2.322905 30.18651-4.644787 46.439682-4.644787z m471.365534 336.689229h-90.557482c2.321882 16.254196 2.321882 30.185486 2.321882 46.439681 0 16.254196 0 30.185486-2.321882 44.117801h90.557482c20.897959 0 39.474037-18.576077 39.474037-39.474037v-16.254196c0-16.253172-18.576077-34.82925-39.474037-34.829249zM211.322963 750.004649l-30.185486 32.508391c-16.254196 11.610432-16.254196 37.152155 0 53.406351l11.610432 11.610432c11.610432 16.254196 37.152155 16.254196 53.40635 0l32.508392-32.508392c-25.543769-18.577101-48.76361-39.47506-67.339688-65.016782z m603.718935-4.643764c-18.576077 25.541723-41.795918 48.761564-67.337641 67.337641l32.508391 32.508392c11.610432 16.254196 37.152155 16.254196 53.40635 0l13.932314-13.932314c16.254196-11.610432 16.254196-37.152155 0-53.406351l-32.509414-32.507368zM510.860037 893.968481c-13.932314 0-30.185486 0-44.1178-2.321881v92.879363c0 20.897959 16.254196 39.474037 37.152155 39.474037h16.254195c18.576077 0 37.152155-18.576077 37.152155-39.474037v-92.879363c-16.254196 2.321882-30.18651 2.321882-46.440705 2.321881z" fill="#333333" p-id="9267"></path></svg>